<svg width="24" height="24" viewBox="0 0 24 24" fill="none" xmlns="http://www.w3.org/2000/svg">
<g clip-path="url(#clip0)">
<rect opacity="0.01" x="24" y="24" width="24" height="24" transform="rotate(180 24 24)" fill="#8D99A7"/>
<path fill-rule="evenodd" clip-rule="evenodd" d="M10.576 6L10.2755 7.51406C9.77432 7.70028 9.31091 7.96044 8.90399 8.28867L7.42397 7.78711L6 10.2129L7.18425 11.2242C7.14227 11.4774 7.11508 11.7352 7.11508 12C7.11508 12.2648 7.14227 12.5226 7.18425 12.7758L6 13.7871L7.42397 16.2129L8.90399 15.7113C9.31091 16.0396 9.77432 16.2997 10.2755 16.486L10.576 18H13.4239L13.7245 16.486C14.2257 16.2997 14.6891 16.0396 15.096 15.7113L16.576 16.2129L18 13.7871L16.8157 12.7758C16.8577 12.5226 16.8849 12.2648 16.8849 12C16.8849 11.7352 16.8577 11.4774 16.8157 11.2242L18 10.2129L16.576 7.78711L15.096 8.28867C14.6891 7.96044 14.2257 7.70028 13.7245 7.51406L13.4239 6H10.576ZM12 9.6C13.3488 9.6 14.4424 10.6746 14.4424 12C14.4424 13.3254 13.3488 14.4 12 14.4C10.6511 14.4 9.55754 13.3254 9.55754 12C9.55754 10.6746 10.6511 9.6 12 9.6Z" fill="#8D99A7"/>
</g>
<defs>
<clipPath id="clip0">
<rect width="24" height="24" fill="white"/>
</clipPath>
</defs>
</svg>
